<?xml version="1.0" encoding="utf-8"?>
<!-- Generator: Adobe Illustrator 23.0.3, SVG Export Plug-In . SVG Version: 6.00 Build 0)  -->
<svg version="1.1" id="Calque_1" xmlns="http://www.w3.org/2000/svg" xmlns:xlink="http://www.w3.org/1999/xlink" x="0px" y="0px"
	 viewBox="0 0 150 150" style="enable-background:new 0 0 150 150;" xml:space="preserve">
<style type="text/css">
	.st0{fill:#112C4E;}
	.st1{fill:#1AF5FB;}
</style>
<rect class="st0" width="150" height="150"/>
<g>
	<path class="st1" d="M117.2,118.1c0.1-0.5,0.1-1.1,0.2-1.4c0-4-2.1-6.2-6.1-6.2c-4.2,0-6.3,2.2-6.3,6.5c0,4.5,2.4,6.8,7.2,6.8
		c1.6,0,3-0.2,4.1-0.4l0.3-0.1v-3.4l-0.5,0.1c-1.2,0.2-2.5,0.3-3.7,0.3c-2.6,0-3.3-0.9-3.4-1.8h8.1L117.2,118.1z M109,115.4
		c0.2-1.2,0.9-1.8,2.2-1.8c1.4,0,2.1,0.6,2.2,1.8H109z"/>
	<path class="st1" d="M103.9,118.1c0.1-0.5,0.1-1.1,0.1-1.4c0-4-2.1-6.2-6.1-6.2c-4.2,0-6.3,2.2-6.3,6.5c0,4.5,2.4,6.8,7.2,6.8
		c1.6,0,3-0.2,4.1-0.4l0.3-0.1v-3.4l-0.5,0.1c-1.2,0.2-2.5,0.3-3.7,0.3c-2.6,0-3.3-0.9-3.4-1.8h8.2L103.9,118.1z M95.7,115.4
		c0.2-1.2,0.9-1.8,2.2-1.8c1.3,0,2,0.6,2.2,1.8H95.7z"/>
	<path class="st1" d="M15,28.2c0.4,2.3,0.9,4.6,1.3,6.9c3.8,19.8,7.5,38.5,3.6,59l-0.7,3.8l49.6-28.4L58.9,64
		c-7.1,1.8-14.4,0.8-20.7-2.9c-8.1-4.8-13.1-13.2-13.7-22.9l106.3,59.7l-0.7-3.7c-3.9-20.4-0.3-39.1,3.6-58.9
		c0.5-2.3,0.9-4.6,1.4-7.1l0.7-3.7L78.9,54l9.6,5.3c6.9-1.9,13.9-1.1,20,2.5c7.7,4.6,12.5,13,13.1,22.7l-107.3-60L15,28.2z"/>
	<path class="st1" d="M90.8,123.6l0.1-8.4c0-3.4-1.7-5.2-4.8-5.2c-1.3,0-2.7,0.5-3.9,1.5c-0.7-1-1.8-1.5-3.3-1.5s-2.7,0.5-3.8,1.4
		l-0.3-1.4h-3.2v13.4h4v-8.9c0.7-0.7,1.4-1,2.2-1c0.6,0,1.3,0.2,1.3,1.7v8.3h4v-8.9c0.8-0.7,1.5-1,2.3-1c1,0,1.4,0.5,1.4,1.7v8.3
		H90.8z"/>
	<path class="st1" d="M130.6,118.1c0-0.5,0.1-1.1,0.1-1.4c0-4-2.1-6.2-6.1-6.2c-4.2,0-6.3,2.2-6.3,6.5c0,4.5,2.4,6.8,7.2,6.8
		c1.6,0,3-0.2,4.1-0.4l0.3-0.1v-3.4l-0.5,0.1c-1.2,0.2-2.5,0.3-3.7,0.3c-2.6,0-3.3-0.9-3.4-1.8h8.2L130.6,118.1z M122.4,115.4
		c0.2-1.2,0.9-1.8,2.2-1.8c1.3,0,2,0.6,2.2,1.8H122.4z"/>
	<path class="st1" d="M62.5,120.1c-2.1,0-3.9-0.3-5.6-0.9l-0.6-0.2v3.9l0.3,0.1c1.7,0.5,3.7,0.8,5.9,0.8c4.9,0,7.5-2,7.5-5.9
		c0-2.4-1.1-5.2-6-5.2h-2.7c-1.1,0-1.6-0.5-1.6-1.5c0-0.5,0-2.1,3.8-2.1c1.9,0,3.6,0.3,5.3,0.9l0.6,0.2v-3.8l-0.3-0.1
		c-1.8-0.5-3.7-0.8-5.6-0.8c-5.2,0-7.9,1.9-7.9,5.7c0,3.4,2,5.2,5.7,5.2H64c1.8,0,2,0.8,2,1.5C66,118.9,65.6,120.1,62.5,120.1z"/>
	<rect x="34.8" y="105.7" class="st1" width="4" height="17.9"/>
	<polygon class="st1" points="28.1,123.6 28.1,109.3 33,109.3 33,105.7 19.2,105.7 19.2,109.3 24.1,109.3 24.1,123.6 	"/>
	<path class="st1" d="M46.2,114l-0.4,0.1l0.6,3.7l0.4-0.1c5-0.8,7.5-3,7.5-6.9c0-3.4-2-5.2-5.7-5.2h-8v17.9h4v-14.2h3.8
		c1.2,0,1.7,0.5,1.7,1.7C50.1,112.6,48.8,113.5,46.2,114z"/>
</g>
</svg>
